<svg width="229" height="229" viewBox="0 0 229 229" fill="none" xmlns="http://www.w3.org/2000/svg">
<path d="M14.4076 118.456L13.9683 118.467C13.3418 118.482 12.8163 118.295 12.3917 117.907C11.9669 117.51 11.7461 116.966 11.7292 116.274C11.712 115.567 11.9059 115.004 12.3109 114.587C12.716 114.17 13.2317 113.954 13.8581 113.939L14.2975 113.929C14.9158 113.913 15.4333 114.104 15.8499 114.501C16.2666 114.898 16.4835 115.446 16.5005 116.146C16.5173 116.838 16.3273 117.392 15.9304 117.808C15.5335 118.225 15.0259 118.441 14.4076 118.456Z" fill="white"/>
<path d="M7.93848 89.1823L8.39501 87.7391L25.2964 86.1975L12.3602 75.2044L12.813 73.7728L27.4946 86.2911L27.1485 87.3851L7.93848 89.1823ZM7.79857 89.6246L8.19988 88.356L17.7914 91.2236L25.1935 93.5652L24.7444 94.9851L7.79857 89.6246ZM12.559 74.5759L12.9603 73.3073L29.9061 78.6678L29.4532 80.0994L22.0511 77.7578L12.559 74.5759Z" fill="white"/>
<path d="M27.6344 61.8384L29.3307 62.7037C30.4399 63.2695 31.3699 63.9267 32.1209 64.6752C32.8683 65.4128 33.4223 66.2162 33.7829 67.0853C34.1472 67.9472 34.3074 68.842 34.2635 69.7697C34.2196 70.6974 33.9573 71.6325 33.4765 72.5749C33.0069 73.4956 32.4075 74.2496 31.6785 74.8369C30.9532 75.417 30.1329 75.8162 29.2176 76.0345C28.3023 76.2528 27.323 76.2831 26.2798 76.1254C25.2292 75.9641 24.1494 75.6005 23.0403 75.0347L21.344 74.1693C20.2348 73.6035 19.3084 72.9482 18.5647 72.2034C17.8174 71.4476 17.2634 70.6351 16.9029 69.766C16.5423 68.8969 16.3839 67.9985 16.4278 67.0707C16.4717 66.143 16.7285 65.2188 17.1981 64.2981C17.6789 63.3557 18.2819 62.5945 19.0072 62.0144C19.7326 61.4343 20.5529 61.0351 21.4681 60.8168C22.3834 60.5986 23.3645 60.5737 24.4113 60.7423C25.4509 60.9072 26.5253 61.2726 27.6344 61.8384ZM28.654 64.0303L26.9359 63.1539C26.0008 62.6768 25.1044 62.3566 24.2468 62.1932C23.3928 62.0225 22.594 62.0124 21.8504 62.1629C21.1104 62.3061 20.4455 62.6065 19.8559 63.064C19.2662 63.5214 18.7754 64.1344 18.3834 64.9028C18.0025 65.6495 17.8018 66.3921 17.7813 67.1308C17.7607 67.8695 17.9078 68.584 18.2225 69.2744C18.5409 69.9576 19.0161 70.602 19.6482 71.2076C20.2839 71.806 21.0694 72.3437 22.0045 72.8208L23.7226 73.6972C24.665 74.178 25.5686 74.5019 26.4335 74.669C27.2948 74.8252 28.1009 74.8299 28.8518 74.6831C29.5955 74.5326 30.2603 74.2322 30.8463 73.782C31.436 73.3246 31.9213 72.7225 32.3022 71.9758C32.6979 71.2002 32.906 70.443 32.9265 69.7043C32.947 68.9657 32.7981 68.2547 32.4797 67.5716C32.154 66.8847 31.6715 66.2457 31.032 65.6546C30.3891 65.0525 29.5964 64.5111 28.654 64.0303Z" fill="white"/>
<path d="M23.2455 54.1716L26.68 49.5302C27.411 48.5424 28.2054 47.8041 29.0633 47.3151C29.9212 46.8262 30.8093 46.6179 31.7278 46.6901C32.6445 46.7509 33.5576 47.1178 34.4669 47.7906C35.1407 48.2893 35.6458 48.8858 35.9823 49.5803C36.3237 50.2682 36.4968 50.9987 36.5018 51.7718C36.5002 52.54 36.3261 53.3021 35.9794 54.0579L35.8241 54.596L32.1572 59.5514L31.1124 58.8085L34.1839 54.6578C34.7357 53.9121 35.0517 53.1841 35.1318 52.474C35.2118 51.7638 35.1083 51.1102 34.8213 50.513C34.5325 49.9045 34.1167 49.3994 33.5737 48.9976C32.9261 48.5183 32.2627 48.2451 31.5835 48.1779C30.9027 48.0992 30.2338 48.237 29.5769 48.5912C28.92 48.9453 28.3011 49.5149 27.7202 50.2999L25.1787 53.7343L38.4256 63.537L37.5325 64.7439L23.2455 54.1716ZM44.0604 55.9225L34.9349 54.8947L35.8836 53.5922L44.884 54.5426L45.0116 54.637L44.0604 55.9225Z" fill="white"/>
<path d="M54.7641 43.2699L55.6549 44.1915L48.4662 51.1395L47.5755 50.2179L54.7641 43.2699ZM36.439 38.0459L48.791 50.8257L47.7114 51.8691L35.3594 39.0894L36.439 38.0459ZM47.9473 38.0087L48.8381 38.9303L42.5447 45.013L41.654 44.0914L47.9473 38.0087ZM43.2589 31.4542L44.1582 32.3846L37.0135 39.2902L36.1142 38.3598L43.2589 31.4542Z" fill="white"/>
<path d="M69.1231 15.2199L76.6562 31.3179L75.2963 31.9543L67.7631 15.8563L69.1231 15.2199Z" fill="white"/>
<path d="M91.1901 7.73158L95.9709 24.85L94.5131 25.2571L80.5876 13.3796L84.6723 28.0054L83.2262 28.4093L78.4454 11.2909L79.8915 10.887L93.8405 22.758L89.7558 8.13217L91.1901 7.73158Z" fill="white"/>
<path d="M99.7166 6.41699L101.615 24.0888L100.122 24.2491L98.2237 6.57733L99.7166 6.41699ZM108.819 13.6651L108.957 14.9517L100.231 15.8889L100.092 14.6024L108.819 13.6651ZM109.171 5.40151L109.31 6.68806L99.3571 7.75699L99.2189 6.47044L109.171 5.40151Z" fill="white"/>
<path d="M127.378 14.0381L127.266 15.9392C127.194 17.1822 126.966 18.2979 126.582 19.2863C126.207 20.2671 125.693 21.0971 125.042 21.7764C124.399 22.4562 123.644 22.9624 122.777 23.2949C121.91 23.6273 120.948 23.7627 119.892 23.701C118.86 23.6407 117.929 23.3948 117.098 22.9631C116.276 22.5319 115.581 21.941 115.013 21.1905C114.446 20.44 114.024 19.5554 113.75 18.5366C113.475 17.5098 113.375 16.3749 113.447 15.1319L113.558 13.2308C113.631 11.9878 113.859 10.8762 114.242 9.89587C114.634 8.90793 115.156 8.0743 115.807 7.39497C116.458 6.71564 117.217 6.20973 118.084 5.87726C118.951 5.54478 119.901 5.40869 120.933 5.46896C121.989 5.53066 122.928 5.77711 123.751 6.20831C124.573 6.6395 125.269 7.23036 125.836 7.98089C126.404 8.73141 126.82 9.61986 127.087 10.6462C127.353 11.6645 127.45 12.7951 127.378 14.0381ZM125.78 15.8523L125.892 13.9269C125.953 12.8789 125.887 11.9294 125.692 11.0783C125.505 10.2278 125.193 9.49221 124.757 8.87161C124.329 8.2515 123.786 7.76332 123.131 7.40708C122.475 7.05085 121.716 6.84757 120.855 6.79726C120.018 6.74838 119.258 6.8629 118.573 7.14082C117.888 7.41874 117.293 7.84047 116.787 8.40601C116.289 8.97202 115.89 9.66606 115.589 10.4881C115.297 11.3107 115.12 12.246 115.059 13.294L114.946 15.2194C114.884 16.2756 114.951 17.2332 115.145 18.0924C115.348 18.9439 115.668 19.684 116.104 20.3127C116.54 20.9333 117.082 21.4215 117.73 21.7772C118.386 22.1335 119.132 22.336 119.969 22.3849C120.838 22.4357 121.615 22.3221 122.3 22.0442C122.985 21.7663 123.576 21.3443 124.074 20.7783C124.572 20.2042 124.963 19.5056 125.248 18.6826C125.541 17.8519 125.718 16.9085 125.78 15.8523Z" fill="white"/>
<path d="M132.636 6.93938L138.266 8.22027C139.464 8.49287 140.459 8.92379 141.252 9.51301C142.044 10.1022 142.592 10.8319 142.895 11.702C143.207 12.566 143.238 13.5495 142.987 14.6525C142.801 15.4698 142.458 16.172 141.957 16.7591C141.464 17.3481 140.865 17.8001 140.159 18.1152C139.454 18.4224 138.687 18.569 137.855 18.5551L137.3 18.6291L131.289 17.2616L131.55 16.0063L136.584 17.1518C137.489 17.3576 138.283 17.3546 138.965 17.1426C139.648 16.9307 140.205 16.5733 140.636 16.0706C141.077 15.5617 141.373 14.978 141.523 14.3194C141.702 13.5338 141.685 12.8165 141.474 12.1675C141.273 11.5124 140.878 10.9552 140.29 10.4959C139.701 10.0366 138.931 9.69861 137.979 9.48197L133.813 8.53417L130.157 24.603L128.693 24.27L132.636 6.93938ZM139.394 26.7045L136.669 17.9348L138.243 18.2803L140.988 26.9045L140.953 27.0592L139.394 26.7045Z" fill="white"/>
<path d="M147.858 10.5578L149.258 11.1319L149.399 28.1029L161.423 16.1187L162.812 16.6882L149.124 30.2859L148.063 29.8506L147.858 10.5578ZM147.429 10.3818L148.66 10.8865L145.01 20.2085L142.065 27.392L140.687 26.8271L147.429 10.3818ZM162.033 16.3687L163.264 16.8734L156.522 33.3187L155.133 32.7491L158.078 25.5656L162.033 16.3687Z" fill="white"/>
<path d="M171.029 22.842L157.001 33.8116L155.673 32.9891L170.737 21.4121L171.661 21.984L171.029 22.842ZM166.985 39.9935L170.541 22.54L171.028 21.5921L171.952 22.164L168.314 40.8161L166.985 39.9935ZM169.354 34.0806L168.673 35.1807L160.65 30.2133L161.332 29.1132L169.354 34.0806Z" fill="white"/>
<path d="M186.726 33.298L175.01 46.6632L173.89 45.6815L185.606 32.3163L186.726 33.298ZM191.307 37.3134L190.454 38.2864L180.182 29.282L181.035 28.309L191.307 37.3134Z" fill="white"/>
<path d="M199.071 46.3678L185.315 57.6223L184.364 56.4602L198.12 45.2057L199.071 46.3678Z" fill="white"/>
<path d="M205.27 70.5753L203.618 71.5221C202.537 72.1412 201.478 72.5604 200.441 72.7796C199.415 73.002 198.439 73.0264 197.514 72.8529C196.594 72.6864 195.757 72.3311 195.004 71.7869C194.251 71.2428 193.612 70.5117 193.086 69.5938C192.572 68.6971 192.269 67.783 192.176 66.8514C192.087 65.9269 192.201 65.0218 192.519 64.1362C192.837 63.2506 193.347 62.4142 194.05 61.627C194.76 60.8358 195.655 60.1306 196.735 59.5116L198.387 58.5648C199.468 57.9457 200.523 57.5286 201.553 57.3133C202.595 57.1011 203.578 57.0817 204.503 57.2552C205.427 57.4287 206.266 57.7876 207.019 58.3317C207.771 58.8759 208.405 59.5963 208.919 60.4931C209.445 61.411 209.752 62.3322 209.841 63.2567C209.93 64.1812 209.815 65.0862 209.498 65.9719C209.18 66.8575 208.664 67.6924 207.95 68.4766C207.244 69.2567 206.35 69.9563 205.27 70.5753ZM202.877 70.23L204.55 69.271C205.461 68.7491 206.22 68.1738 206.826 67.5452C207.436 66.9237 207.881 66.2605 208.162 65.5556C208.446 64.8578 208.559 64.1369 208.498 63.3931C208.438 62.6492 208.193 61.9031 207.764 61.1546C207.347 60.4273 206.835 59.8531 206.228 59.4319C205.621 59.0107 204.942 58.743 204.192 58.6289C203.446 58.5218 202.647 58.5672 201.794 58.765C200.946 58.97 200.066 59.3334 199.155 59.8554L197.482 60.8143C196.564 61.3403 195.798 61.9196 195.185 62.5522C194.583 63.1879 194.139 63.8602 193.851 64.5691C193.57 65.274 193.458 65.9949 193.514 66.7317C193.575 67.4755 193.813 68.2111 194.23 68.9384C194.663 69.6939 195.183 70.2822 195.79 70.7034C196.397 71.1246 197.074 71.3887 197.82 71.4958C198.573 71.5989 199.372 71.5444 200.217 71.3324C201.072 71.1235 201.959 70.756 202.877 70.23Z" fill="white"/>
<path d="M218.374 82.6548L201.709 88.8329L201.183 87.4136L211.87 72.5549L197.631 77.8334L197.109 76.4256L213.774 70.2475L214.296 71.6553L203.618 86.5369L217.856 81.2584L218.374 82.6548Z" fill="white"/>
<path d="M213.768 110.089L214.208 110.078C214.834 110.063 215.359 110.25 215.784 110.638C216.209 111.035 216.43 111.579 216.447 112.271C216.464 112.978 216.27 113.541 215.865 113.958C215.46 114.375 214.944 114.591 214.318 114.606L213.878 114.617C213.26 114.632 212.743 114.441 212.326 114.044C211.909 113.647 211.692 113.099 211.675 112.399C211.658 111.707 211.849 111.153 212.245 110.737C212.642 110.32 213.15 110.104 213.768 110.089Z" fill="white"/>
<path d="M220.237 139.363L219.78 140.806L202.879 142.348L215.815 153.341L215.362 154.772L200.681 142.254L201.027 141.16L220.237 139.363ZM220.377 138.92L219.975 140.189L210.384 137.321L202.982 134.98L203.431 133.56L220.377 138.92ZM215.616 153.969L215.215 155.238L198.269 149.877L198.722 148.446L206.124 150.787L215.616 153.969Z" fill="white"/>
<path d="M200.541 166.707L198.845 165.841C197.736 165.276 196.806 164.618 196.055 163.87C195.307 163.132 194.753 162.329 194.393 161.46C194.029 160.598 193.868 159.703 193.912 158.775C193.956 157.848 194.218 156.913 194.699 155.97C195.169 155.049 195.768 154.295 196.497 153.708C197.223 153.128 198.043 152.729 198.958 152.511C199.873 152.292 200.853 152.262 201.896 152.42C202.947 152.581 204.026 152.945 205.136 153.51L206.832 154.376C207.941 154.942 208.867 155.597 209.611 156.342C210.358 157.097 210.912 157.91 211.273 158.779C211.633 159.648 211.792 160.547 211.748 161.474C211.704 162.402 211.447 163.326 210.978 164.247C210.497 165.189 209.894 165.951 209.169 166.531C208.443 167.111 207.623 167.51 206.708 167.728C205.792 167.946 204.811 167.971 203.764 167.803C202.725 167.638 201.651 167.272 200.541 166.707ZM199.522 164.515L201.24 165.391C202.175 165.868 203.071 166.188 203.929 166.352C204.783 166.523 205.582 166.533 206.325 166.382C207.065 166.239 207.73 165.939 208.32 165.481C208.91 165.024 209.4 164.411 209.792 163.642C210.173 162.896 210.374 162.153 210.395 161.414C210.415 160.676 210.268 159.961 209.953 159.271C209.635 158.587 209.16 157.943 208.528 157.337C207.892 156.739 207.106 156.201 206.171 155.724L204.453 154.848C203.511 154.367 202.607 154.043 201.742 153.876C200.881 153.72 200.075 153.715 199.324 153.862C198.58 154.012 197.915 154.313 197.329 154.763C196.74 155.22 196.255 155.823 195.874 156.569C195.478 157.345 195.27 158.102 195.249 158.841C195.229 159.579 195.378 160.29 195.696 160.973C196.022 161.66 196.504 162.299 197.144 162.89C197.787 163.493 198.579 164.034 199.522 164.515Z" fill="white"/>
<path d="M204.93 174.373L201.496 179.015C200.765 180.003 199.97 180.741 199.112 181.23C198.255 181.719 197.366 181.927 196.448 181.855C195.531 181.794 194.618 181.427 193.709 180.754C193.035 180.256 192.53 179.659 192.193 178.965C191.852 178.277 191.679 177.546 191.674 176.773C191.676 176.005 191.85 175.243 192.196 174.487L192.352 173.949L196.019 168.994L197.063 169.736L193.992 173.887C193.44 174.633 193.124 175.361 193.044 176.071C192.964 176.781 193.067 177.435 193.354 178.032C193.643 178.641 194.059 179.146 194.602 179.547C195.25 180.027 195.913 180.3 196.592 180.367C197.273 180.446 197.942 180.308 198.599 179.954C199.256 179.6 199.875 179.03 200.456 178.245L202.997 174.811L189.75 165.008L190.643 163.801L204.93 174.373ZM184.115 172.623L193.241 173.65L192.292 174.953L183.292 174.002L183.164 173.908L184.115 172.623Z" fill="white"/>
<path d="M173.411 185.275L172.52 184.354L179.709 177.405L180.6 178.327L173.411 185.275ZM191.736 190.499L179.384 177.719L180.464 176.676L192.816 189.456L191.736 190.499ZM180.228 190.536L179.337 189.615L185.631 183.532L186.521 184.454L180.228 190.536ZM184.916 197.091L184.017 196.16L191.162 189.255L192.061 190.185L184.916 197.091Z" fill="white"/>
<path d="M159.053 213.325L151.52 197.227L152.879 196.591L160.413 212.689L159.053 213.325Z" fill="white"/>
<path d="M136.986 220.813L132.205 203.695L133.663 203.288L147.588 215.165L143.503 200.54L144.95 200.136L149.73 217.254L148.284 217.658L134.335 205.787L138.42 220.413L136.986 220.813Z" fill="white"/>
<path d="M128.459 222.128L126.561 204.456L128.054 204.296L129.952 221.968L128.459 222.128ZM119.357 214.88L119.219 213.593L127.945 212.656L128.083 213.943L119.357 214.88ZM119.004 223.144L118.866 221.857L128.819 220.788L128.957 222.075L119.004 223.144Z" fill="white"/>
<path d="M100.798 214.507L100.909 212.606C100.982 211.363 101.21 210.247 101.594 209.259C101.969 208.278 102.482 207.448 103.133 206.769C103.776 206.089 104.531 205.583 105.399 205.25C106.266 204.918 107.228 204.782 108.284 204.844C109.315 204.904 110.247 205.15 111.077 205.582C111.9 206.013 112.595 206.604 113.163 207.355C113.73 208.105 114.151 208.99 114.426 210.008C114.7 211.035 114.801 212.17 114.728 213.413L114.617 215.314C114.545 216.557 114.317 217.669 113.933 218.649C113.542 219.637 113.02 220.471 112.369 221.15C111.718 221.829 110.959 222.335 110.092 222.668C109.224 223 108.275 223.136 107.243 223.076C106.187 223.014 105.248 222.768 104.425 222.337C103.602 221.906 102.907 221.315 102.34 220.564C101.772 219.814 101.355 218.925 101.089 217.899C100.823 216.881 100.726 215.75 100.798 214.507ZM102.396 212.693L102.284 214.618C102.222 215.666 102.289 216.616 102.484 217.467C102.671 218.317 102.982 219.053 103.419 219.673C103.847 220.294 104.389 220.782 105.045 221.138C105.701 221.494 106.459 221.697 107.321 221.748C108.157 221.797 108.918 221.682 109.603 221.404C110.288 221.126 110.883 220.705 111.389 220.139C111.886 219.573 112.286 218.879 112.586 218.057C112.879 217.234 113.056 216.299 113.117 215.251L113.23 213.326C113.291 212.269 113.225 211.312 113.031 210.453C112.828 209.601 112.508 208.861 112.072 208.232C111.635 207.612 111.093 207.124 110.446 206.768C109.79 206.412 109.044 206.209 108.207 206.16C107.338 206.109 106.561 206.223 105.876 206.501C105.191 206.779 104.6 207.201 104.102 207.767C103.604 208.341 103.213 209.039 102.928 209.862C102.635 210.693 102.458 211.637 102.396 212.693Z" fill="white"/>
<path d="M95.5399 221.606L89.9098 220.325C88.7116 220.052 87.7163 219.621 86.924 219.032C86.1316 218.443 85.584 217.713 85.2812 216.843C84.9687 215.979 84.9379 214.996 85.1888 213.893C85.3748 213.075 85.7182 212.373 86.219 211.786C86.7118 211.197 87.3112 210.745 88.0172 210.43C88.7214 210.123 89.4892 209.976 90.3207 209.99L90.8758 209.916L96.8868 211.283L96.6262 212.539L91.5913 211.393C90.6867 211.187 89.8931 211.19 89.2106 211.402C88.5281 211.614 87.9711 211.972 87.5395 212.474C87.0983 212.983 86.8027 213.567 86.6529 214.226C86.4742 215.011 86.4904 215.729 86.7016 216.378C86.9031 217.033 87.298 217.59 87.8862 218.049C88.4744 218.508 89.2446 218.846 90.1969 219.063L94.3629 220.011L98.0187 203.942L99.4827 204.275L95.5399 221.606ZM88.7821 201.841L91.5065 210.61L89.9326 210.265L87.1876 201.641L87.2228 201.486L88.7821 201.841Z" fill="white"/>
<path d="M80.3179 217.987L78.9173 217.413L78.7767 200.442L66.7528 212.426L65.3635 211.857L79.0515 198.259L80.1132 198.694L80.3179 217.987ZM80.7471 218.163L79.5159 217.659L83.1659 208.337L86.1107 201.153L87.4887 201.718L80.7471 218.163ZM66.1429 212.176L64.9117 211.672L71.6534 195.226L73.0426 195.796L70.0978 202.979L66.1429 212.176Z" fill="white"/>
<path d="M57.1465 205.703L71.1747 194.733L72.5032 195.556L57.4385 207.133L56.5148 206.561L57.1465 205.703ZM61.1905 188.551L57.6343 206.005L57.1479 206.953L56.2242 206.381L59.862 187.729L61.1905 188.551ZM58.8215 194.464L59.5027 193.364L67.5254 198.332L66.8442 199.432L58.8215 194.464Z" fill="white"/>
<path d="M41.4496 195.247L53.1657 181.882L54.2856 182.864L42.5695 196.229L41.4496 195.247ZM36.8691 191.232L37.7221 190.259L47.9938 199.263L47.1409 200.236L36.8691 191.232Z" fill="white"/>
<path d="M29.1046 182.177L42.8607 170.923L43.8115 172.085L30.0553 183.339L29.1046 182.177Z" fill="white"/>
<path d="M22.906 157.97L24.5583 157.023C25.6386 156.404 26.6974 155.985 27.7348 155.765C28.7611 155.543 29.7367 155.519 30.6615 155.692C31.5823 155.859 32.419 156.214 33.1717 156.758C33.9243 157.302 34.5636 158.033 35.0896 158.951C35.6035 159.848 35.9069 160.762 35.9999 161.694C36.0889 162.618 35.9744 163.523 35.6565 164.409C35.3386 165.294 34.8283 166.131 34.1258 166.918C33.4161 167.709 32.5211 168.414 31.4408 169.033L29.7886 169.98C28.7082 170.599 27.6529 171.016 26.6226 171.232C25.5811 171.444 24.598 171.463 23.6732 171.29C22.7484 171.116 21.9096 170.757 21.157 170.213C20.4043 169.669 19.771 168.949 19.2572 168.052C18.7312 167.134 18.4237 166.213 18.3348 165.288C18.2458 164.364 18.3603 163.459 18.6782 162.573C18.9961 161.688 19.5119 160.853 20.2256 160.068C20.9322 159.288 21.8257 158.589 22.906 157.97ZM25.2987 158.315L23.6253 159.274C22.7144 159.796 21.9561 160.371 21.3502 161C20.7403 161.621 20.2949 162.285 20.0141 162.989C19.7293 163.687 19.6172 164.408 19.6776 165.152C19.7381 165.896 19.9827 166.642 20.4116 167.39C20.8284 168.118 21.3403 168.692 21.9475 169.113C22.5547 169.534 23.2333 169.802 23.9834 169.916C24.7295 170.023 25.5289 169.978 26.3816 169.78C27.2302 169.575 28.11 169.212 29.0209 168.69L30.6943 167.731C31.6122 167.205 32.3776 166.625 32.9906 165.993C33.5924 165.357 34.0372 164.685 34.3251 163.976C34.6058 163.271 34.718 162.55 34.6616 161.813C34.6011 161.07 34.3625 160.334 33.9458 159.607C33.5128 158.851 32.9928 158.263 32.3856 157.842C31.7785 157.42 31.1019 157.156 30.3558 157.049C29.6026 156.946 28.8038 157.001 27.9592 157.213C27.1035 157.422 26.2166 157.789 25.2987 158.315Z" fill="white"/>
<path d="M9.80185 145.89L26.467 139.712L26.9931 141.131L16.3061 155.99L30.5447 150.712L31.0666 152.119L14.4015 158.298L13.8796 156.89L24.5581 142.008L10.3195 147.287L9.80185 145.89Z" fill="white"/>
</svg>
